<svg xmlns="http://www.w3.org/2000/svg" xmlns:xlink="http://www.w3.org/1999/xlink" width="350" zoomAndPan="magnify" viewBox="0 0 262.5 262.500001" height="350" preserveAspectRatio="xMidYMid meet" version="1.0"><defs><g/><clipPath id="f9f2944410"><path d="M 24 29.21875 L 241 29.21875 L 241 232.53125 L 24 232.53125 Z M 24 29.21875 " clip-rule="nonzero"/></clipPath></defs><g clip-path="url(#f9f2944410)"><path fill="#000000" d="M 135.304688 231.953125 C 117.75 232.476562 100.503906 229.804688 83.316406 226.753906 C 71.453125 224.652344 61.824219 218.445312 53.714844 209.824219 C 42.667969 198.085938 35.207031 184.140625 30.558594 168.832031 C 19.664062 133.007812 23.289062 98.683594 42.164062 66.144531 C 50.730469 51.375 63.480469 41.902344 79.546875 36.761719 C 91.378906 32.980469 103.480469 30.644531 116.003906 30.566406 C 123.910156 30.523438 131.816406 29.660156 139.722656 29.492188 C 152.394531 29.222656 164.863281 30.609375 176.804688 35.128906 C 201.855469 44.609375 219.46875 62.050781 230.527344 86.160156 C 248.085938 124.445312 241.261719 170.1875 213.453125 201.179688 C 199.136719 217.125 181.3125 226.84375 160.164062 230.722656 C 151.867188 232.242188 143.59375 231.671875 135.304688 231.964844 Z M 147.203125 222.449219 C 150.269531 222.234375 154.148438 222.234375 157.953125 221.644531 C 177.8125 218.558594 194.25 209.175781 207.457031 194.136719 C 220.429688 179.355469 227.910156 162.070312 230.136719 142.558594 C 233.433594 113.566406 225.875 87.769531 206.40625 65.898438 C 192.941406 50.769531 175.933594 41.601562 155.726562 39.488281 C 129.613281 36.761719 107.328125 45.402344 89.066406 64.132812 C 74.550781 79.015625 66.242188 97.0625 63.636719 117.625 C 60.011719 146.316406 66.992188 172.164062 86 194.125 C 101.800781 212.375 122 222.066406 147.195312 222.449219 Z M 34.347656 131.511719 C 39.527344 132.238281 47.542969 131.085938 53.347656 128.726562 C 53.707031 124.601562 53.996094 120.351562 54.476562 116.136719 C 54.96875 111.785156 56.367188 107.558594 56.679688 102.742188 C 51.492188 102.226562 46.683594 101.703125 41.875 101.289062 C 40.507812 101.175781 39.101562 101.410156 37.847656 101.476562 C 34.71875 109.683594 33.074219 124.164062 34.359375 131.511719 Z M 40.085938 92.488281 C 43.785156 92.824219 46.960938 93.070312 50.125 93.394531 C 53.324219 93.730469 56.5 94.46875 59.867188 93.605469 C 61.109375 90.820312 62.269531 88.039062 63.578125 85.320312 C 64.898438 82.59375 66.386719 79.941406 67.75 77.238281 C 69.070312 74.609375 71.273438 72.40625 72.089844 69.253906 C 65.605469 68.148438 59.496094 67.105469 53.167969 66.023438 C 47.609375 74.242188 43.171875 82.738281 40.085938 92.476562 Z M 34.804688 140.925781 C 34.539062 149.601562 37.3125 162.269531 40.667969 168.421875 C 45.621094 167 53.894531 162.929688 57.214844 160.28125 C 55.929688 153.148438 54.644531 146.023438 53.292969 138.554688 C 47.085938 139.347656 41.125 140.109375 34.796875 140.925781 Z M 43.429688 177.03125 C 47.519531 186.34375 52.296875 194.214844 58.480469 201.382812 C 63.367188 198.230469 67.894531 195.300781 72.480469 192.335938 C 70.167969 188.378906 67.917969 184.777344 65.90625 181.03125 C 63.925781 177.332031 62.191406 173.507812 60.15625 169.335938 C 54.523438 171.929688 49.253906 174.347656 43.417969 177.03125 Z M 101.152344 41.804688 C 86.203125 40.976562 66.105469 49.507812 61.097656 58.898438 C 64.238281 59.3125 67.238281 59.714844 70.234375 60.085938 C 73.230469 60.453125 76.226562 60.777344 78.308594 61.023438 C 86.246094 54.347656 93.492188 48.242188 101.152344 41.804688 Z M 65.203125 206.871094 C 74.28125 215.738281 88.496094 220.59375 101.457031 219.375 C 98.324219 217.101562 95.527344 215.214844 92.902344 213.132812 C 90.207031 211.007812 87.578125 208.773438 85.0625 206.425781 C 82.589844 204.132812 80.308594 201.652344 77.90625 199.226562 C 73.519531 201.863281 69.550781 204.257812 65.203125 206.882812 Z M 65.203125 206.871094 " fill-opacity="1" fill-rule="nonzero"/></g><g fill="#000000" fill-opacity="1"><g transform="translate(114.636017, 216.56113)"><g><path d="M 77.96875 -130.8125 L 69.53125 -149.390625 L -1.1875 -117.3125 L 7.25 -98.734375 Z M 60.9375 -76.0625 L 52.578125 -94.484375 L 16.578125 -78.15625 L 24.9375 -59.734375 Z M 33.4375 -15.171875 L -10.90625 -112.90625 L -31.484375 -103.5625 L 12.859375 -5.828125 Z M 33.4375 -15.171875 "/></g></g></g></svg>