<svg xmlns="http://www.w3.org/2000/svg" xmlns:xlink="http://www.w3.org/1999/xlink" width="500" zoomAndPan="magnify" viewBox="0 0 375 374.999991" height="500" preserveAspectRatio="xMidYMid meet" version="1.0"><defs><g/><clipPath id="31977ff80e"><path d="M 35 42 L 345 42 L 345 332.816406 L 35 332.816406 Z M 35 42 " clip-rule="nonzero"/></clipPath></defs><g clip-path="url(#31977ff80e)"><path fill="#ffffff" d="M 193.847656 332.355469 C 168.691406 333.105469 143.980469 329.277344 119.351562 324.902344 C 102.351562 321.890625 88.554688 312.996094 76.9375 300.644531 C 61.105469 283.816406 50.417969 263.835938 43.753906 241.898438 C 28.144531 190.558594 33.335938 141.367188 60.386719 94.738281 C 72.660156 73.570312 90.925781 60 113.953125 52.628906 C 130.90625 47.210938 148.242188 43.863281 166.191406 43.75 C 177.519531 43.6875 188.847656 42.453125 200.175781 42.214844 C 218.332031 41.828125 236.199219 43.816406 253.308594 50.289062 C 289.203125 63.878906 314.441406 88.875 330.289062 123.421875 C 355.445312 178.285156 345.671875 243.839844 305.820312 288.257812 C 285.308594 311.105469 259.769531 325.03125 229.46875 330.589844 C 217.578125 332.769531 205.71875 331.953125 193.847656 332.371094 Z M 210.894531 318.734375 C 215.285156 318.429688 220.847656 318.429688 226.292969 317.578125 C 254.753906 313.15625 278.308594 299.714844 297.230469 278.160156 C 315.820312 256.976562 326.539062 232.207031 329.726562 204.246094 C 334.453125 162.695312 323.621094 125.730469 295.726562 94.386719 C 276.433594 72.707031 252.0625 59.566406 223.105469 56.539062 C 185.691406 52.628906 153.753906 65.015625 127.589844 91.855469 C 106.789062 113.183594 94.882812 139.042969 91.152344 168.511719 C 85.960938 209.628906 95.957031 246.675781 123.199219 278.144531 C 145.839844 304.296875 174.777344 318.1875 210.878906 318.734375 Z M 49.183594 188.414062 C 56.605469 189.453125 68.09375 187.804688 76.410156 184.421875 C 76.921875 178.511719 77.339844 172.421875 78.027344 166.378906 C 78.734375 160.148438 80.734375 154.089844 81.183594 147.183594 C 73.75 146.445312 66.859375 145.695312 59.96875 145.101562 C 58.015625 144.941406 55.996094 145.277344 54.199219 145.375 C 49.714844 157.136719 47.359375 177.886719 49.203125 188.414062 Z M 57.40625 132.492188 C 62.710938 132.972656 67.261719 133.324219 71.792969 133.789062 C 76.378906 134.269531 80.929688 135.328125 85.75 134.09375 C 87.53125 130.101562 89.195312 126.113281 91.070312 122.21875 C 92.960938 118.308594 95.09375 114.511719 97.046875 110.632812 C 98.9375 106.867188 102.09375 103.710938 103.265625 99.195312 C 93.972656 97.605469 85.222656 96.117188 76.152344 94.5625 C 68.1875 106.339844 61.828125 118.519531 57.40625 132.472656 Z M 49.84375 201.90625 C 49.457031 214.339844 53.429688 232.496094 58.238281 241.308594 C 65.335938 239.273438 77.195312 233.441406 81.953125 229.640625 C 80.109375 219.417969 78.269531 209.210938 76.328125 198.507812 C 67.4375 199.644531 58.894531 200.734375 49.824219 201.90625 Z M 62.195312 253.644531 C 68.0625 266.992188 74.902344 278.273438 83.765625 288.546875 C 90.765625 284.027344 97.257812 279.828125 103.824219 275.582031 C 100.507812 269.910156 97.289062 264.75 94.402344 259.382812 C 91.566406 254.078125 89.085938 248.597656 86.167969 242.621094 C 78.09375 246.339844 70.542969 249.800781 62.179688 253.644531 Z M 144.910156 59.855469 C 123.488281 58.667969 94.691406 70.894531 87.515625 84.355469 C 92.015625 84.949219 96.3125 85.523438 100.605469 86.054688 C 104.898438 86.582031 109.195312 87.046875 112.175781 87.398438 C 123.550781 77.832031 133.933594 69.085938 144.910156 59.855469 Z M 93.394531 296.414062 C 106.40625 309.121094 126.773438 316.074219 145.34375 314.328125 C 140.855469 311.074219 136.851562 308.367188 133.085938 305.386719 C 129.222656 302.339844 125.457031 299.136719 121.851562 295.773438 C 118.3125 292.488281 115.042969 288.929688 111.597656 285.453125 C 105.316406 289.234375 99.628906 292.664062 93.394531 296.429688 Z M 93.394531 296.414062 " fill-opacity="1" fill-rule="nonzero"/></g><g fill="#ffffff" fill-opacity="1"><g transform="translate(164.077667, 309.962332)"><g><path d="M 111.59375 -187.25 L 99.546875 -213.828125 L -1.6875 -167.90625 L 10.359375 -141.328125 Z M 87.234375 -108.875 L 75.28125 -135.265625 L 23.734375 -111.875 L 35.6875 -85.484375 Z M 47.859375 -21.703125 L -15.59375 -161.59375 L -45.046875 -148.25 L 18.40625 -8.359375 Z M 47.859375 -21.703125 "/></g></g></g></svg>